<?xml version="1.0" encoding="UTF-8" standalone="no"?>
<svg
   xmlns:dc="http://purl.org/dc/elements/1.1/"
   xmlns:cc="http://creativecommons.org/ns#"
   xmlns:rdf="http://www.w3.org/1999/02/22-rdf-syntax-ns#"
   xmlns:svg="http://www.w3.org/2000/svg"
   xmlns="http://www.w3.org/2000/svg"
   xmlns:sodipodi="http://sodipodi.sourceforge.net/DTD/sodipodi-0.dtd"
   xmlns:inkscape="http://www.inkscape.org/namespaces/inkscape"
   cursor="default"
   viewBox="0 0 256 256"
   version="1.1"
   id="svg27"
   sodipodi:docname="tshirt.svg"
   inkscape:version="0.92.4 (5da689c313, 2019-01-14)">
  <metadata
     id="metadata33">
    <rdf:RDF>
      <cc:Work
         rdf:about="">
        <dc:format>image/svg+xml</dc:format>
        <dc:type
           rdf:resource="http://purl.org/dc/dcmitype/StillImage" />
      </cc:Work>
    </rdf:RDF>
  </metadata>
  <defs
     id="defs31" />
  <sodipodi:namedview
     pagecolor="#ffffff"
     bordercolor="#666666"
     borderopacity="1"
     objecttolerance="10"
     gridtolerance="10"
     guidetolerance="10"
     inkscape:pageopacity="0"
     inkscape:pageshadow="2"
     inkscape:window-width="1360"
     inkscape:window-height="706"
     id="namedview29"
     showgrid="false"
     inkscape:zoom="2.6074563"
     inkscape:cx="117.15031"
     inkscape:cy="152.84435"
     inkscape:window-x="-8"
     inkscape:window-y="-8"
     inkscape:window-maximized="1"
     inkscape:current-layer="svg27" />
  <g
     id="patternLayer"
     display="inline">
    <path
       d="m 203.26213,244.43343 c -15.915,-0.16 -33.16113,-1.02043 -47.65713,-1.58643 -10.627,-0.414 -24.635,-1.623 -37.604,-1.987 -16.483,-0.462 -39.196583,1.3973 -58.078583,2.4063 2.272,-44.78 16.69166,-102.58579 8.179583,-134.3533 -8.91,4.708 -15.835068,6.66707 -22.981,13.813 C 32.583,108.905 21.876,99.969 10.271,88.634 36.581,59.994 43.570942,51.719831 62.96664,36.358 72.783314,28.582972 83.525,22.69 94.83,16.456 c 14.17,45.805 55.74,37.79 68.64,-1.428 17.423,6.647 24.52359,10.738966 35.04442,18.805 19.35731,14.84072 34.10758,35.565 50.15258,53.285 -10.017,12.712 -22.055,23.403 -33.083,35.103 -6.67257,-6.67257 -13.836,-9.97 -20.56,-16.744 -7.90961,29.51904 8.71013,96.45443 8.23813,138.95643 z"
       id="path2"
       inkscape:connector-curvature="0"
       style="fill:#ff8080;fill-rule:evenodd;stroke:#000000"
       sodipodi:nodetypes="cccccccaccacccc" />
  </g>
  <g
     id="g25">
    <path
       fill="#f55"
       fill-rule="evenodd"
       stroke="#000"
       d="M97.035 20.719c25.609 56.27 66.686 11.482 64.65-1.137z"
       id="path5" />
    <path
       fill="#ff8080"
       fill-rule="evenodd"
       stroke="#000"
       d="M97.792 15.194l1.642-1.105c19.745 5.856 44.134 7.179 58.841-.757l5.114 2.525c1.82.976-1.642 3.47-4.21 5.921-10.837 4.457-42.409 6.563-60.544-.105-1.78-1.487-.42-3.21-.843-6.479z"
       id="path7" />
    <path
       d="m 203.26213,244.43343 c -15.914,-0.16 -33.08013,-0.75043 -47.57613,-1.31643 -10.628,-0.413 -24.635,-1.623 -37.605,-1.986 -16.483,-0.462 -39.276583,1.1253 -58.158583,2.1353 2.271,-44.781 16.654498,-102.75305 8.259583,-134.0833 -8.91,4.708 -15.783913,6.61791 -22.98,13.814 C 32.663,109.175 21.957,100.239 10.352,88.904 36.662,60.264 43.163865,51.881228 62.472367,36.628 72.426768,28.764275 83.606,22.96 94.911,16.726 c 14.169,45.806 55.74,37.79 68.64,-1.427 17.423,6.646 24.2319,10.802548 34.65991,18.804 19.42125,14.902005 34.49209,35.565 50.53609,53.286 -10.017,12.711 -22.054,23.402 -33.082,35.102 -6.66202,-6.66202 -13.837,-9.97 -20.56,-16.744 -8.18232,30.53685 8.63013,96.18443 8.15713,138.68643 z"
       id="path9"
       inkscape:connector-curvature="0"
       style="fill:none;stroke:#000000"
       sodipodi:nodetypes="cccccccaccacccc" />
    <path
       fill="#faa"
       fill-rule="evenodd"
       stroke="#000"
       d="M93.102 17.688c13.316 48.14 65.258 37.497 71.668-1.999l-5.37-1.863c-4.405 39.456-53.108 44.894-61.694 1.412z"
       id="path11" />
    <path
       d="m 66.574288,88.239407 c -0.564,-46.362 -2.785932,-32.591695 -5.505932,-49.770695"
       id="path13"
       inkscape:connector-curvature="0"
       style="fill:none;stroke:#ffaaaa;stroke-width:0.5;stroke-dasharray:1, 0.5"
       sodipodi:nodetypes="cc" />
    <path
       d="M 68.127,109.804 C 67.034696,102.33164 65.649542,93.557 65.909542,85.278"
       id="path15"
       inkscape:connector-curvature="0"
       style="fill:none;stroke:#000000"
       sodipodi:nodetypes="cc" />
    <path
       d="m 195.31287,94.088556 c -8.714,-23.918 1.91238,-61.54742 2.88038,-58.92542"
       id="path17"
       inkscape:connector-curvature="0"
       style="fill:none;stroke:#ffaaaa;stroke-width:0.48699999;stroke-dasharray:0.97331638, 0.48665819"
       sodipodi:nodetypes="cc" />
    <path
       d="m 195.073,106.615 c 0.295,-9.365 1.10676,-14.417 0.77376,-21.625"
       id="path19"
       inkscape:connector-curvature="0"
       style="fill:none;stroke:#000000"
       sodipodi:nodetypes="cc" />
    <path
       d="m 14.711697,85.159697 c 18.96,14.317 25.452362,26.397943 33.220362,33.912943 m 12.907746,117.77037 c 41.953995,-3.03 74.180965,0.38641 141.808965,1.39041 m 10.32996,-119.35254 c 21.859,-28.024003 22.87712,-24.689728 32.42912,-34.360728"
       id="path21"
       inkscape:connector-curvature="0"
       style="fill:none;stroke:#ffaaaa;stroke-width:0.5;stroke-dasharray:1, 0.5"
       sodipodi:nodetypes="cccccc" />
    <path
       fill="#b3b3b3"
       fill-rule="evenodd"
       stroke="#000"
       d="M120.633 29.831c.446.09 15.446.18 15.446.18l-.446 2.32-14.911-.089z"
       id="path23" />
  </g>
</svg>
